<svg xmlns="http://www.w3.org/2000/svg"
shape-rendering="geometricPrecision"
width="4000" height="4000" viewBox="0 0 1024 1024">
  <metadata>null</metadata>

<path d="
M 66.456 500.093
C 66.85 497.733 68.532 495.001 70.907 494.183
C 72.682 493.572 74.862 493.8 76.71 493.814
C 80.065 493.839 83.419 493.757 86.774 493.751
C 89.331 493.746 92.447 493.299 94.9 494.159
C 98.077 495.272 100.601 499.053 100.112 502.434
C 99.732 505.062 97.178 507.793 94.686 508.538
C 92.275 509.259 89.486 508.922 87.003 508.91
C 83.836 508.896 80.67 508.869 77.503 508.882
C 75.452 508.89 73.174 509.11 71.188 508.496
C 67.73 507.425 65.882 503.525 66.456 500.093 Z"
opacity="1" fill="rgb(37,104,173)" fill-rule="evenodd" />
<path d="
M 70.477 552.107
C 70.552 550.741 70.869 549.409 71.55 548.219
C 75.585 541.172 85.801 544.842 85.522 552.62
C 85.197 561.673 69.965 561.326 70.477 552.107 Z"
opacity="1" fill="rgb(27,93,161)" fill-rule="evenodd" />
<path d="
M 107.935 448.558
C 108.754 446.367 110.484 443.972 112.782 443.231
C 115.545 442.339 119.128 442.872 122.005 442.852
C 126.139 442.824 130.276 442.801 134.411 442.842
C 136.557 442.862 138.986 442.605 141.073 443.185
C 144.888 444.245 147.532 449.06 146.078 452.828
C 145.338 454.747 142.941 457.531 140.881 458.129
C 138.652 458.776 135.799 458.219 133.5 458.196
C 129.666 458.158 125.833 458.177 121.998 458.192
C 119.041 458.203 115.425 458.76 112.583 457.84
C 109.068 456.701 106.629 452.053 107.935 448.558 Z"
opacity="1" fill="rgb(36,102,167)" fill-rule="evenodd" />
<path d="
M 108.877 499.038
C 110.821 493.784 115.465 493.749 120.234 493.776
C 123.344 493.794 126.454 493.811 129.563 493.758
C 132.286 493.712 135.405 493.342 138.046 494.126
C 141.267 495.082 144.175 499.39 143.014 502.789
C 140.084 511.371 129.001 508.861 122 508.843
C 119.262 508.836 115.807 509.394 113.184 508.472
C 109.818 507.29 107.656 502.339 108.877 499.038 Z"
opacity="1" fill="rgb(122,176,224)" fill-rule="evenodd" />
<path d="
M 173.19 543.888
C 172.215 549.094 167.699 553.823 168.449 559.259
C 161.953 560.548 154.624 559.699 147.999 559.708
C 139.843 559.72 131.15 560.585 123.05 559.618
C 118.629 559.09 115.635 555.425 116.26 550.932
C 117.114 544.781 122.456 544.212 127.506 544.214
C 138.339 544.22 149.172 544.271 160.005 544.268
C 163.281 544.267 166.57 544.393 169.843 544.272
C 170.469 544.249 172.95 544.451 173.19 543.888 Z"
opacity="1" fill="rgb(24,95,160)" fill-rule="evenodd" />
<path d="
M 126.948 474.586
C 127.389 471.192 129.635 468.658 133.111 468.222
C 142.207 467.082 151.842 467.936 161 467.934
C 164.674 467.933 170.012 466.951 173.481 468.372
C 176.763 469.715 178.41 473.838 177.916 477.159
C 177.255 481.604 173.833 483.341 169.668 483.562
C 161.188 484.013 152.558 483.592 144.073 483.433
C 140.305 483.362 135.816 484.142 132.16 483.103
C 128.673 482.111 126.498 478.055 126.948 474.586 Z"
opacity="1" fill="rgb(139,188,230)" fill-rule="evenodd" />
<path d="
M 132.398 524.577
C 133.029 522.067 134.906 519.906 137.482 519.277
C 139.55 518.772 141.898 519.074 144.01 519.074
C 148.009 519.074 152.009 519.078 156.008 519.073
C 159.001 519.068 162.627 518.56 165.501 519.549
C 168.938 520.731 171.397 524.873 170.653 528.408
C 170.162 530.741 167.483 533.525 165.171 533.98
C 159.19 535.158 152.261 534.264 146.178 534.26
C 143.19 534.259 139.435 534.797 136.569 533.828
C 132.815 532.56 131.505 528.128 132.398 524.577 Z"
opacity="1" fill="rgb(27,93,160)" fill-rule="evenodd" />
<path d="
M 233.093 494.416
C 236.175 496.405 238.246 498.902 241.853 500.242
C 248.972 502.887 258.397 501.359 265.052 498.064
C 267.876 496.666 270.465 494.399 273.355 493.243
C 276.4 494.127 280.493 492.035 283.408 493.467
C 280.782 498.541 278.344 504.388 276.614 509.834
C 266.69 508.456 256.109 509.346 246.006 509.233
C 226.172 509.01 206.338 508.92 186.502 508.833
C 179.025 508.801 171.547 508.8 164.069 508.806
C 160.598 508.809 156.353 509.216 153.599 506.648
C 148.706 502.086 153.021 494.135 158.892 493.694
C 164.7 493.256 170.68 493.689 176.504 493.718
C 187.169 493.77 197.835 493.748 208.5 493.761
C 214.672 493.769 220.858 493.63 227.016 494.048
C 228.878 494.174 231.352 493.835 233.093 494.416 Z"
opacity="1" fill="rgb(115,171,220)" fill-rule="evenodd" />
<path d="
M 258.932 443.074
C 255.484 444.934 251.798 446.058 248.426 448.215
C 243.985 451.056 240.692 454.861 236.887 458.378
C 237.135 457.713 235.542 458.112 235.065 458.103
C 233.215 458.07 231.353 458.19 229.501 458.185
C 224.668 458.172 219.837 458.112 215.004 458.102
C 200.685 458.07 186.311 457.779 171.996 458.139
C 166.64 458.273 159.384 459.936 156.125 454.659
C 153.915 451.08 155.428 444.715 159.703 443.199
C 161.45 442.579 163.782 442.891 165.612 442.896
C 169.243 442.906 172.873 442.936 176.504 442.932
C 194.001 442.913 211.514 442.905 229.012 443.102
C 235.676 443.176 242.338 443.253 249.002 443.235
C 252.234 443.226 255.738 443.538 258.932 443.074 Z"
opacity="1" fill="rgb(33,101,167)" fill-rule="evenodd" />
<path d="
M 156.882 395.563
C 158.501 389.994 162.793 389.907 167.673 389.819
C 169.92 389.779 172.351 389.57 174.482 390.436
C 177.641 391.72 179.857 395.558 179.101 398.925
C 177.802 404.712 171.781 404.969 167.002 404.921
C 164.767 404.899 162.203 404.814 160.155 403.801
C 157.435 402.455 156.061 398.384 156.882 395.563 Z"
opacity="1" fill="rgb(43,106,176)" fill-rule="evenodd" />
<path d="
M 162.422 422.587
C 163.469 415.371 170.634 416.229 176.145 416.221
C 178.447 416.217 181.169 415.858 183.302 416.882
C 186.303 418.321 188.74 421.142 188.033 424.72
C 186.761 431.164 179.854 431.26 174.682 431.251
C 169.954 431.243 163.615 431.303 162.468 425.369
C 162.295 424.475 162.291 423.488 162.422 422.587 Z"
opacity="1" fill="rgb(145,192,232)" fill-rule="evenodd" />
<path d="
M 173.19 543.888
C 173.726 540.627 175.554 537.404 176.683 534.312
C 178.569 529.149 180.258 523.833 182.462 518.797
C 184.921 518.503 187.535 518.785 190.011 518.802
C 190.551 518.805 192.26 518.622 192.354 519.267
C 190.573 521.603 189.815 525.202 188.901 527.967
C 187.304 532.798 185.578 537.59 183.807 542.36
C 183.091 544.288 182.451 546.242 181.734 548.169
C 181.422 549.006 180.814 550.127 180.898 551.003
C 182.712 551.48 185.63 550.913 187.554 550.913
C 192.536 550.913 197.518 550.909 202.5 550.898
C 211.333 550.88 220.166 550.865 228.999 550.867
C 234.212 550.869 239.727 551.41 244.883 550.535
C 250.237 549.628 255.002 547.227 259.264 543.939
C 267.112 537.883 268.914 527.458 272.798 518.924
C 273.917 515.916 274.952 512.585 276.614 509.834
C 278.344 504.388 280.782 498.541 283.408 493.467
C 286.495 485.753 289.55 477.959 292.531 470.197
C 294.095 466.126 295.518 461.128 297.927 457.486
C 299.681 454.657 300.696 451.136 301.97 448.065
C 305.183 440.319 308.084 432.447 311.274 424.692
C 312.5 421.713 313.278 418.087 315.051 415.396
C 315.706 415.009 315.942 413.354 316.217 412.638
C 317.085 410.38 317.81 408.072 318.912 405.913
C 319.974 405.009 320.29 402.442 320.665 401.148
C 322.617 394.394 319.721 385.946 313.504 382.389
C 308.422 379.48 302.605 379.887 296.952 379.891
C 289.224 379.897 281.497 379.912 273.77 379.904
C 270.767 379.901 267.48 380.577 264.515 380.217
C 261.479 379.254 258.149 379.692 255.001 379.669
C 248.917 379.626 242.814 379.741 236.737 379.645
C 237.393 377.735 238.247 375.864 239.654 374.369
C 245.073 368.608 256.089 370.291 263.197 370.351
C 273.108 370.435 283.019 370.321 292.93 370.353
C 298.104 370.37 303.583 369.899 308.697 370.789
C 316.844 372.205 323.624 377.581 327.485 384.802
C 332.99 395.095 329.404 405.549 325.4 415.53
C 323.727 419.699 322.122 423.9 320.364 428.034
C 316.256 437.696 312.644 447.569 308.474 457.204
C 300.08 476.603 291.716 496.088 284.016 515.772
C 278.258 530.495 274.111 548.073 258.67 555.579
C 248.451 560.546 238.041 559.898 227.003 559.896
C 212.503 559.892 198.003 559.923 183.504 559.958
C 179.492 559.967 175.419 560.17 171.413 560.001
C 170.273 559.953 169.582 559.155 168.449 559.259
C 167.699 553.823 172.215 549.094 173.19 543.888 Z"
opacity="1" fill="rgb(11,61,115)" fill-rule="evenodd" />
<path d="
M 192.354 519.267
C 194.47 518.87 196.849 519.104 199.007 519.09
C 203.34 519.063 207.674 519.078 212.007 519.073
C 225.674 519.06 239.341 519.162 253.008 519.156
C 257.959 519.153 262.91 519.231 267.861 519.239
C 268.759 519.241 272.346 519.654 272.798 518.924
C 268.914 527.458 267.112 537.883 259.264 543.939
C 255.002 547.227 250.237 549.628 244.883 550.535
C 239.727 551.41 234.212 550.869 228.999 550.867
C 220.166 550.865 211.333 550.88 202.5 550.898
C 197.518 550.909 192.536 550.913 187.554 550.913
C 185.63 550.913 182.712 551.48 180.898 551.003
C 180.814 550.127 181.422 549.006 181.734 548.169
C 182.451 546.242 183.091 544.288 183.807 542.36
C 185.578 537.59 187.304 532.798 188.901 527.967
C 189.815 525.202 190.573 521.603 192.354 519.267 Z"
opacity="1" fill="rgb(31,102,170)" fill-rule="evenodd" />
<path d="
M 264.515 380.217
C 267.48 380.577 270.767 379.901 273.77 379.904
C 281.497 379.912 289.224 379.897 296.952 379.891
C 302.605 379.887 308.422 379.48 313.504 382.389
C 319.721 385.946 322.617 394.394 320.665 401.148
C 320.29 402.442 319.974 405.009 318.912 405.913
C 318.805 405.307 317.99 405.46 317.464 405.396
C 315.674 405.18 313.802 405.293 312.001 405.292
C 304.334 405.286 296.667 405.297 288.999 405.322
C 263.833 405.402 238.666 405.351 213.499 405.296
C 208.662 405.286 203.825 405.205 198.987 405.225
C 194.747 405.243 190.381 404.888 188.522 400.421
C 186.975 396.706 188.639 392.185 192.378 390.505
C 194.18 389.695 196.425 389.866 198.355 389.874
C 215.736 389.95 233.117 389.869 250.499 389.901
C 254.575 389.909 260.131 390.903 263.936 389.218
C 266.655 388.015 267.827 383.891 266.005 381.476
C 265.511 381.053 265.011 380.638 264.515 380.217 Z"
opacity="1" fill="rgb(142,189,231)" fill-rule="evenodd" />
<path d="
M 209.511 468.281
C 208.232 472.007 206.935 475.719 205.608 479.43
C 205.161 480.68 203.868 482.824 203.975 484.126
C 200.897 484.396 197.74 483.981 194.648 484.134
C 194.871 482.132 195.972 480.075 196.674 478.193
C 197.89 474.933 198.837 471.573 199.964 468.284
C 202.925 467.764 206.49 468.258 209.511 468.281 Z"
opacity="1" fill="rgb(5,53,99)" fill-rule="evenodd" />
<path d="
M 221.205 415.966
C 221.407 417.585 225.219 416.455 226.411 417.051
C 229.716 418.704 231.076 422.93 229.93 426.318
C 228.32 431.083 223.114 431.255 219.008 430.948
C 217.425 430.829 214.294 429.848 214.249 432.021
C 213.467 431.08 211.435 431.41 210.314 431.377
C 207.301 431.29 203.511 431.856 200.714 430.461
C 195.893 428.057 195.92 419.584 200.816 417.336
C 205.118 415.36 211.574 416.621 216.197 416.62
C 217.408 416.62 220.634 417.227 221.205 415.966 Z"
opacity="1" fill="rgb(147,196,234)" fill-rule="evenodd" />
<path d="
M 209.511 468.281
C 214.684 467.717 220.215 468.182 225.42 468.242
C 226.692 468.257 230.461 468.808 231.365 467.944
C 230.037 471.511 229.005 474.95 228.908 478.805
C 228.873 480.187 228.798 481.615 228.862 482.994
C 228.877 483.317 229.119 484.096 228.917 484.356
C 220.783 483.283 212.175 484.307 203.975 484.126
C 203.868 482.824 205.161 480.68 205.608 479.43
C 206.935 475.719 208.232 472.007 209.511 468.281 Z"
opacity="1" fill="rgb(33,103,168)" fill-rule="evenodd" />
<path d="
M 221.205 415.966
C 221.25 415.56 221.056 415.051 221.33 414.748
C 221.356 414.719 222.425 414.71 222.508 414.706
C 223.716 414.644 224.925 414.779 226.136 414.796
C 231.745 414.875 237.382 415.079 243.035 415.051
C 259.36 414.968 275.683 415.148 292.007 415.168
C 297.173 415.174 302.34 415.134 307.507 415.177
C 309.888 415.196 312.752 414.77 315.051 415.396
C 313.278 418.087 312.5 421.713 311.274 424.692
C 308.084 432.447 305.183 440.319 301.97 448.065
C 300.696 451.136 299.681 454.657 297.927 457.486
C 295.411 457.358 292.863 457.042 290.36 457.507
C 289.465 455.448 289.033 453.254 287.904 451.284
C 285.613 447.286 282.189 445.611 278.385 443.385
C 283.205 440.905 283.03 433.911 277.092 433.261
C 272.476 432.756 267.639 433.163 262.999 433.177
C 254.166 433.206 245.333 433.23 236.5 433.204
C 230.874 433.188 225.25 433.185 219.625 433.221
C 218.016 433.232 214.547 433.968 214.249 432.021
C 214.294 429.848 217.425 430.829 219.008 430.948
C 223.114 431.255 228.32 431.083 229.93 426.318
C 231.076 422.93 229.716 418.704 226.411 417.051
C 225.219 416.455 221.407 417.585 221.205 415.966 Z"
opacity="1" fill="rgb(38,109,181)" fill-rule="evenodd" />
<path d="
M 231.365 467.944
C 232.579 464.531 234.879 461.362 236.887 458.378
C 240.692 454.861 243.985 451.056 248.426 448.215
C 251.798 446.058 255.484 444.934 258.932 443.074
C 265.422 442.147 271.98 441.54 278.385 443.385
C 282.189 445.611 285.613 447.286 287.904 451.284
C 289.033 453.254 289.465 455.448 290.36 457.507
C 293.026 470.994 283.743 485.368 273.355 493.243
C 270.465 494.399 267.876 496.666 265.052 498.064
C 258.397 501.359 248.972 502.887 241.853 500.242
C 238.246 498.902 236.175 496.405 233.093 494.416
C 231.081 491.384 229.337 488.034 228.917 484.356
C 229.119 484.096 228.877 483.317 228.862 482.994
C 228.798 481.615 228.873 480.187 228.908 478.805
C 229.005 474.95 230.037 471.511 231.365 467.944 Z
M 238.442 475.6
C 238.155 477.462 238.155 479.366 238.487 481.222
C 238.807 483.01 239.353 484.801 240.278 486.373
C 243.853 492.444 251.649 492.953 257.786 491.237
C 261.249 490.269 264.248 488.386 267.108 486.26
C 273.736 481.331 280.036 473.975 281.099 465.454
C 281.738 460.329 279.696 454.089 274.607 451.918
C 271.039 450.396 266.808 450.532 263.131 451.444
C 252.236 454.145 240.231 463.975 238.442 475.6 Z"
opacity="1" fill="rgb(9,60,114)" fill-rule="evenodd" />
<path d="
M 290.36 457.507
C 292.863 457.042 295.411 457.358 297.927 457.486
C 295.518 461.128 294.095 466.126 292.531 470.197
C 289.55 477.959 286.495 485.753 283.408 493.467
C 280.493 492.035 276.4 494.127 273.355 493.243
C 283.743 485.368 293.026 470.994 290.36 457.507 Z"
opacity="1" fill="rgb(189,215,240)" fill-rule="evenodd" />
<path d="
M 348.432 443.604
C 348.455 443.357 348.478 443.111 348.501 442.864
C 351.672 441.294 357.013 442.306 360.507 442.309
C 361.796 442.31 363.754 441.932 364.925 442.475
C 364.196 451.858 364.955 461.59 364.938 471.008
C 364.915 483.083 364.221 495.408 364.942 507.458
C 376.333 506.667 388.201 506.852 399.611 507.311
C 400.179 508.305 399.848 510.356 399.858 511.499
C 399.888 514.982 399.843 518.465 399.857 521.948
C 388.592 522.203 377.274 521.859 366.001 521.882
C 362.168 521.89 358.334 521.88 354.501 521.866
C 352.619 521.859 350.356 522.188 348.531 521.774
C 348.175 517.165 348.568 512.432 348.555 507.803
C 348.53 498.537 348.435 489.268 348.437 479.998
C 348.439 471.392 348.494 462.784 348.544 454.182
C 348.564 450.707 348.134 447.054 348.432 443.604 Z"
opacity="1" fill="rgb(32,98,172)" fill-rule="evenodd" />
<path d="
M 405.936 501.589
C 406.73 498.604 407.556 495.701 409.494 493.208
C 417.041 483.499 433.311 484.216 443.876 487.31
C 443.71 483.896 443.444 479.497 441.278 476.706
C 437.878 472.323 429.619 473.29 425.357 475.543
C 422.882 476.852 422.441 479.171 420.526 480.848
C 416.487 481.468 412.513 476.291 409.724 474.042
C 410.508 469.088 416.603 464.729 420.921 463.107
C 431.395 459.174 446.885 459.66 454.31 469.154
C 458.55 474.575 458.812 480.879 458.945 487.46
C 459.098 494.973 459.146 502.485 459.124 510
C 459.113 513.712 458.522 518.059 459.222 521.701
C 455.152 521.219 450.748 521.644 446.646 521.623
C 445.903 519.681 446.411 517.231 446.094 515.177
C 444.704 515.656 443.878 517.393 442.731 518.298
C 440.397 520.139 437.678 521.654 434.806 522.468
C 423.075 525.788 408.782 520.976 406.113 507.846
C 405.697 505.798 405.595 503.654 405.936 501.589 Z
M 421.938 502.077
C 420.696 507.238 424.819 510.786 429.604 511.359
C 436.173 512.146 443.317 508.669 443.345 501.458
C 443.349 500.346 443.825 497.551 443.157 496.712
C 435.999 495.818 425.337 493.924 421.938 502.077 Z"
opacity="1" fill="rgb(33,98,171)" fill-rule="evenodd" />
<path d="
M 474.275 437.219
C 479.16 436.068 485.353 436.746 490.352 436.99
C 489.809 444.231 490.387 451.802 490.471 459.071
C 490.506 462.108 491.003 465.441 490.392 468.437
C 491.669 467.687 492.686 465.918 493.941 464.971
C 497.274 462.455 501.006 461.246 505.136 460.867
C 507.677 460.634 510.284 460.795 512.783 461.294
C 531.304 464.991 535.796 489.692 530.62 505.127
C 526.756 516.648 516.387 524.43 503.977 523.266
C 499.67 522.863 495.305 521.178 492.088 518.235
C 490.982 517.223 490.084 516.002 489.269 514.749
C 488.972 514.292 488.339 513.118 488.048 512.967
C 487.838 512.858 488.017 513.44 488.002 513.677
C 487.867 516.079 488.229 519.238 487.519 521.524
C 483.157 521.823 478.763 521.669 474.397 521.655
C 473.755 512.699 474.361 503.481 474.331 494.498
C 474.268 475.405 474.266 456.312 474.275 437.219 Z
M 490.476 486.126
C 490.342 488.924 490.551 491.71 490.581 494.504
C 490.624 498.573 490.334 502.611 493.295 505.824
C 497.751 510.659 507.168 511.531 511.923 506.621
C 514.87 503.579 516.016 498.621 516.285 494.519
C 516.663 488.773 516.416 481.015 511.706 476.921
C 507.462 473.233 498.78 472.656 494.437 476.448
C 491.483 479.026 490.656 482.382 490.476 486.126 Z"
opacity="1" fill="rgb(33,98,171)" fill-rule="evenodd" />
<path d="
M 541.972 488.107
C 543.013 481.003 545.132 473.658 550.42 468.424
C 562.032 456.928 583.48 457.803 593.242 471.21
C 598.352 478.229 599.089 487.581 598.348 495.982
C 597.867 496.478 596.17 496.301 595.501 496.313
C 593.004 496.36 590.499 496.294 588.001 496.294
C 578.026 496.291 567.675 495.564 557.746 496.39
C 557.64 497.984 558.159 499.717 558.664 501.219
C 561.223 508.829 568.561 512.371 576.326 510.457
C 580.664 509.388 583.384 506.794 585.917 503.275
C 587.208 503.218 588.614 504.577 589.726 505.209
C 592.033 506.522 594.485 507.431 596.844 508.617
C 596.027 509.795 595.552 511.191 594.72 512.381
C 592.541 515.497 589.612 518.074 586.311 519.934
C 575.076 526.262 558.284 524.256 549.633 514.452
C 543.523 507.529 541.088 497.15 541.972 488.107 Z
M 557.949 485.088
C 557.783 485.722 557.874 485.392 557.676 486.078
C 562.552 486.493 567.822 485.965 572.753 486
C 576.253 486.025 580.483 486.61 583.914 485.94
C 583.251 476.095 572.589 469.158 563.816 475.039
C 560.183 477.475 558.909 481.007 557.949 485.088 Z"
opacity="1" fill="rgb(31,98,171)" fill-rule="evenodd" />
<path d="
M 610.104 436.635
C 615.18 436.115 620.346 436.457 625.435 436.497
C 626.516 454.58 625.752 472.888 625.743 491.004
C 625.741 495.121 625.56 499.288 625.784 503.398
C 625.894 505.422 626.795 507.741 628.696 508.738
C 630.548 509.709 633.195 509.256 635.196 509.228
C 635.511 513.05 636.188 517.399 635.702 521.215
C 630.123 522.532 625.443 523.991 619.699 522.084
C 618.125 521.561 616.393 520.95 615.199 519.748
C 608.794 513.304 610.359 503.203 610.333 494.938
C 610.294 482.293 610.253 469.648 610.234 457.003
C 610.224 450.234 610.519 443.392 610.104 436.635 Z"
opacity="1" fill="rgb(31,97,170)" fill-rule="evenodd" />
<path d="
M 648.421 441.918
C 649.122 441.25 650.555 441.448 651.506 441.441
C 654.251 441.42 656.983 441.45 659.723 441.573
C 660.129 443.952 659.796 446.589 659.8 449.003
C 659.808 454.005 659.832 459.007 659.864 464.008
C 659.965 479.652 660.043 495.321 659.93 510.962
C 668.603 510.716 677.323 510.95 686.006 510.938
C 688.598 510.935 691.19 510.892 693.782 510.886
C 694.969 510.883 696.441 510.733 697.557 511.169
C 697.357 514.354 698.411 518.257 697.403 521.338
C 685.489 520.929 673.435 521.449 661.504 521.45
C 657.231 521.45 652.825 521.726 648.569 521.392
C 648.199 517.631 648.525 513.777 648.531 509.993
C 648.541 504 648.34 497.997 648.333 492
C 648.315 475.311 648.122 458.603 648.421 441.918 Z"
opacity="1" fill="rgb(12,63,121)" fill-rule="evenodd" />
<path d="
M 706.921 443.086
C 707.434 440.623 709.097 438.14 711.566 437.308
C 716.561 435.625 721.614 441.073 720.473 445.917
C 718.508 454.251 705.137 451.663 706.921 443.086 Z"
opacity="1" fill="rgb(12,65,124)" fill-rule="evenodd" />
<path d="
M 708.268 461.78
C 711.702 461.825 715.584 461.168 718.965 461.873
C 718.688 466.349 719.188 471.002 719.205 475.505
C 719.244 486.172 719.251 496.839 719.279 507.505
C 719.29 511.995 719.862 516.849 719.375 521.302
C 715.78 521.121 712.068 521.128 708.482 521.427
C 707.79 520.51 708.23 518.336 708.231 517.203
C 708.232 513.636 708.208 510.069 708.19 506.503
C 708.138 496.501 708.081 486.499 708.069 476.497
C 708.063 471.814 707.296 466.361 708.268 461.78 Z"
opacity="1" fill="rgb(11,63,117)" fill-rule="evenodd" />
<path d="
M 733.51 488.114
C 734.436 479.567 736.718 471.887 743.266 465.863
C 752.334 457.521 769.389 459.032 776.437 468.986
C 776.927 466.794 776.412 464.137 776.778 461.833
C 780.01 461.981 783.293 461.529 786.517 461.839
C 786.523 477.525 786.416 493.228 786.441 508.924
C 786.457 518.452 787.345 527.854 781.448 535.977
C 774.221 545.93 757.657 546.591 747.207 542.167
C 743.29 540.509 740.055 537.917 738.014 534.146
C 737.382 532.978 736.634 531.722 736.739 530.372
C 738.42 529.203 740.203 528.197 741.9 527.056
C 742.577 526.6 743.557 525.714 744.403 525.788
C 745.739 528.262 747.267 530.718 749.676 532.294
C 756.134 536.517 767.167 536.594 772.433 530.246
C 776.54 525.295 775.497 519.361 775.823 513.411
C 774.341 513.918 773.406 515.664 772.157 516.576
C 769.43 518.567 765.813 519.836 762.478 520.234
C 759.605 520.577 756.777 520.473 753.928 519.986
C 739.03 517.442 732.68 501.845 733.51 488.114 Z
M 745.477 486.624
C 744.875 494.008 745.266 503.793 752.206 508.245
C 759.644 513.016 774.68 510.103 775.555 499.887
C 775.846 496.487 775.601 492.975 775.599 489.563
C 775.596 484.386 776.163 479.273 772.605 475.04
C 768.075 469.652 757.63 468.623 752.038 472.933
C 747.787 476.211 745.899 481.437 745.477 486.624 Z"
opacity="1" fill="rgb(8,61,119)" fill-rule="evenodd" />
<path d="
M 804.448 438.106
C 804.539 437.475 804.512 437.852 804.453 436.971
C 807.905 436.202 812.182 436.662 815.716 436.748
C 815.385 447.175 816.384 457.673 815.93 468.086
C 817.155 467.326 818.067 466.003 819.222 465.114
C 821.595 463.287 824.343 461.993 827.269 461.362
C 830.344 460.7 833.464 460.378 836.602 460.681
C 838.96 460.908 841.259 461.363 843.464 462.247
C 855.323 466.999 854.701 480.966 854.732 491.503
C 854.739 494.003 854.729 496.503 854.735 499.003
C 854.743 502.836 854.751 506.67 854.749 510.503
C 854.746 514.035 854.396 517.884 854.889 521.381
C 852.429 521.258 849.959 521.294 847.496 521.288
C 846.248 521.285 844.8 521.534 843.602 521.187
C 843.069 511.195 843.597 501.014 843.595 491.003
C 843.594 485.526 844.322 479.814 841.214 474.992
C 839.114 471.733 835.312 470.411 831.586 470.414
C 825.167 470.419 819.43 473.448 816.286 479.181
C 815.59 480.45 815.7 481.902 815.68 483.307
C 815.644 485.873 815.689 488.439 815.705 491.005
C 815.747 497.671 815.785 504.336 815.779 511.001
C 815.776 514.35 815.367 518.041 815.84 521.349
C 812.213 521.073 808.167 521.038 804.551 521.44
C 803.745 519.9 804.38 516.761 804.387 515
C 804.409 509.499 804.398 503.999 804.397 498.499
C 804.395 484.832 804.361 471.166 804.394 457.499
C 804.41 451.052 804.135 444.545 804.448 438.106 Z"
opacity="1" fill="rgb(13,64,119)" fill-rule="evenodd" />
<path d="
M 865.469 463.104
C 865.565 462.321 865.408 462.724 866.177 462.016
C 869.148 461.518 872.277 461.82 875.282 461.766
C 874.942 460.352 875.297 458.475 875.311 457.005
C 875.348 453.223 875.6 449.423 875.573 445.648
C 876.108 445.144 877.26 445.288 877.997 445.284
C 879.919 445.273 881.843 445.302 883.763 445.248
C 884.324 445.232 886.081 444.92 886.451 445.338
C 885.998 450.798 887.043 456.331 886.682 461.769
C 890.068 461.491 893.604 461.764 897.003 461.786
C 898.73 461.797 900.779 461.473 902.458 461.868
C 902.044 464.903 902.421 468.327 902.433 471.406
C 898.594 471.598 894.738 471.639 890.892 471.667
C 889.777 471.674 887.344 471.261 886.488 471.909
C 886.491 481.043 886.263 490.17 886.401 499.307
C 886.455 502.885 886.045 507.791 889.099 510.328
C 891.054 511.952 894.354 512.536 896.817 512.059
C 897.864 511.856 901.079 510.686 901.889 511.361
C 901.678 514.358 902.395 517.389 902.158 520.377
C 900.85 521.424 897.623 521.615 895.985 521.867
C 888.999 522.941 880.991 521.383 877.546 514.581
C 874.889 509.335 875.416 503.201 875.436 497.497
C 875.465 488.978 875.029 480.348 875.417 471.844
C 874.445 471.438 873.048 471.68 871.997 471.68
C 869.842 471.68 867.695 471.622 865.543 471.771
C 865.17 470.954 865.458 469.543 865.523 468.646
C 865.658 466.784 865.372 464.955 865.469 463.104 Z"
opacity="1" fill="rgb(13,65,120)" fill-rule="evenodd" />

</svg>